{"asset":{"version":"2.0","generator":"THREE.GLTFExporter"},"scenes":[{"nodes":[0],"name":"AuxScene"}],"scene":0,"nodes":[{"mesh":0}],"bufferViews":[{"buffer":0,"byteOffset":0,"byteLength":59004,"target":34962,"byteStride":12},{"buffer":0,"byteOffset":59004,"byteLength":59004,"target":34962,"byteStride":12}],"buffers":[{"byteLength":118008,"uri":"data:application/octet-stream;base64,"}],"accessors":[{"bufferView":0,"componentType":5126,"count":4917,"max":[100.81192016601562,2.7959749698638916,100.61190795898438],"min":[-100.78809356689453,0.19596900045871735,-100.98809814453125],"type":"VEC3"},{"bufferView":1,"componentType":5126,"count":4917,"max":[0.9636094570159912,1,0.8543554544448853],"min":[-0.9417378306388855,0.10894160717725754,-0.9635142087936401],"type":"VEC3"}],"materials":[{"pbrMetallicRoughness":{"baseColorFactor":[0.5019607843137255,0.5019607843137255,0.5019607843137255,1],"metallicFactor":0,"roughnessFactor":1}}],"meshes":[{"primitives":[{"mode":4,"attributes":{"POSITION":0,"NORMAL":1},"material":0}]}]}